<?xml version="1.0" standalone="no"?>
<!DOCTYPE svg PUBLIC "-//W3C//DTD SVG 20010904//EN"
 "http://www.w3.org/TR/2001/REC-SVG-20010904/DTD/svg10.dtd">
<svg version="1.0" xmlns="http://www.w3.org/2000/svg"
 width="1200.000000pt" height="1200.000000pt" viewBox="0 0 1200.000000 1200.000000"
 preserveAspectRatio="xMidYMid meet">
<metadata>
Created by potrace 1.14, written by Peter Selinger 2001-2017
</metadata>
<g transform="translate(0.000000,1200.000000) scale(0.100000,-0.100000)"
fill="#000000" stroke="none">
<path d="M8009 11556 c-2 -2 -58 -7 -124 -10 -66 -4 -156 -9 -200 -12 -44 -4
-99 -7 -122 -8 -24 0 -43 -3 -43 -6 0 -3 -15 -5 -33 -6 -41 -1 -134 -11 -178
-18 -19 -4 -52 -8 -74 -11 -22 -2 -51 -6 -65 -9 -14 -2 -47 -7 -73 -11 -27 -4
-57 -8 -67 -10 -9 -2 -33 -6 -51 -9 -19 -3 -44 -8 -55 -10 -12 -2 -38 -7 -58
-10 -19 -3 -55 -10 -78 -15 -24 -6 -54 -12 -68 -14 -38 -8 -163 -38 -180 -44
-8 -3 -23 -8 -33 -10 -46 -9 -301 -100 -420 -150 -119 -49 -404 -188 -417
-202 -3 -4 -25 -17 -50 -30 -25 -14 -97 -58 -160 -100 -63 -42 -119 -78 -124
-80 -9 -3 -36 -25 -60 -46 -6 -6 -27 -22 -46 -35 -37 -26 -60 -45 -119 -96
-20 -17 -46 -39 -59 -50 -29 -24 -168 -161 -207 -205 -99 -110 -217 -273 -272
-374 -11 -22 -30 -57 -42 -78 -11 -20 -21 -39 -21 -42 0 -3 -11 -29 -23 -57
-27 -60 -84 -230 -91 -268 -3 -14 -5 -25 -7 -25 -1 0 -3 -13 -4 -30 -2 -16 -4
-30 -5 -30 -5 0 -20 -96 -27 -180 -11 -127 -4 -419 10 -442 3 -5 7 -30 10 -58
3 -27 13 -81 22 -120 9 -38 19 -79 22 -90 9 -40 12 -50 13 -52 2 -2 3 -6 4
-10 15 -58 68 -226 83 -263 3 -8 7 -21 9 -29 1 -7 7 -18 13 -24 6 -6 11 -19
11 -29 0 -9 7 -32 15 -50 8 -18 26 -64 40 -103 15 -38 33 -83 40 -100 8 -16
28 -66 45 -110 18 -44 38 -93 45 -110 8 -16 32 -75 55 -130 22 -55 45 -109 50
-120 41 -88 130 -302 130 -312 0 -7 5 -13 10 -13 6 0 10 -6 10 -14 0 -7 11
-39 25 -71 14 -32 25 -59 23 -60 -9 -9 -244 -119 -250 -117 -5 1 -8 -3 -8 -8
0 -6 -4 -10 -10 -10 -5 0 -63 -27 -130 -59 -66 -33 -120 -58 -120 -55 0 3 -12
-4 -26 -15 -15 -12 -30 -21 -35 -21 -5 0 -84 -37 -176 -82 -92 -45 -170 -82
-173 -83 -3 0 -68 -32 -145 -70 -77 -37 -147 -70 -155 -71 -8 -2 -16 -8 -18
-13 -2 -6 -7 -11 -12 -11 -12 0 -232 -106 -576 -276 -160 -79 -296 -144 -302
-144 -6 0 -12 -3 -14 -7 -1 -5 -61 -37 -133 -73 -71 -35 -133 -69 -137 -75 -4
-5 -8 -6 -8 -2 0 4 -19 -3 -42 -16 -24 -14 -106 -57 -183 -97 -77 -40 -162
-85 -190 -100 -27 -15 -77 -42 -110 -60 -115 -63 -450 -254 -455 -260 -3 -3
-39 -25 -80 -49 -41 -24 -82 -50 -90 -57 -8 -7 -26 -19 -40 -26 -41 -22 -175
-112 -178 -120 -2 -5 -8 -8 -12 -8 -7 0 -95 -61 -155 -107 -144 -112 -190
-149 -210 -166 -13 -12 -53 -49 -90 -81 -64 -56 -155 -149 -226 -228 -39 -43
-42 -47 -89 -108 -19 -25 -37 -47 -40 -50 -33 -32 -200 -311 -200 -335 0 -8
-4 -15 -10 -15 -5 0 -10 -6 -10 -13 0 -7 -11 -35 -24 -63 -22 -46 -73 -187
-82 -226 -2 -10 -6 -28 -9 -39 -2 -12 -9 -36 -14 -53 -6 -17 -13 -44 -15 -61
-7 -39 -15 -85 -20 -111 -29 -146 -25 -522 7 -679 3 -11 8 -40 13 -65 9 -51
11 -59 14 -62 2 -4 10 -34 24 -103 2 -11 10 -33 17 -50 6 -16 13 -35 14 -40
10 -45 98 -244 128 -287 10 -16 16 -28 12 -28 -3 0 5 -15 19 -33 15 -19 26
-39 26 -45 0 -7 3 -12 8 -12 4 0 13 -13 20 -28 6 -16 21 -38 32 -50 11 -12 20
-25 20 -29 0 -4 18 -28 40 -53 22 -24 40 -47 40 -51 0 -4 18 -25 40 -48 22
-22 40 -46 40 -51 0 -6 4 -10 8 -10 5 0 42 -33 83 -72 79 -77 181 -167 207
-182 16 -9 45 -33 67 -54 8 -6 18 -12 24 -12 6 0 11 -4 11 -10 0 -5 6 -10 14
-10 8 0 16 -4 18 -8 4 -12 94 -72 107 -72 5 0 15 -8 20 -17 6 -10 11 -14 11
-10 0 5 12 0 27 -11 16 -10 55 -34 88 -52 33 -18 75 -41 92 -51 18 -10 33 -15
33 -11 0 4 4 2 8 -4 6 -10 79 -47 195 -97 20 -10 52 -23 70 -31 108 -48 341
-132 472 -171 50 -14 101 -30 115 -35 14 -5 36 -12 50 -14 14 -3 63 -15 110
-27 47 -11 92 -23 100 -24 8 -2 15 -4 15 -5 0 -1 9 -3 20 -4 11 -2 34 -6 50
-10 17 -3 40 -9 52 -11 13 -3 33 -7 45 -10 13 -3 37 -7 53 -10 17 -2 42 -7 58
-9 35 -7 132 -23 180 -30 20 -4 52 -8 70 -11 38 -6 81 -11 162 -20 33 -4 74
-8 92 -10 18 -2 37 -6 43 -10 5 -3 10 -1 10 5 0 6 4 8 10 5 15 -9 147 -20 365
-31 123 -6 574 -5 715 1 198 8 490 29 575 40 17 2 64 7 105 11 72 6 105 11
105 14 0 1 20 3 45 5 25 2 59 6 75 9 17 3 48 7 70 10 85 11 122 17 145 22 14
2 39 7 55 9 17 3 41 7 55 10 14 3 43 8 65 11 22 3 56 10 75 14 19 5 49 12 65
14 17 3 41 8 55 11 27 6 57 13 93 19 29 6 194 47 322 81 114 30 387 120 427
141 15 8 31 15 35 15 12 2 36 10 58 20 237 102 459 215 506 255 8 8 19 14 23
14 4 0 22 11 40 25 18 14 37 25 42 25 5 0 20 10 34 23 14 12 50 39 80 59 30
21 67 48 82 60 14 13 46 39 69 58 59 48 155 137 198 184 20 21 55 59 79 84 23
24 42 48 42 52 0 5 4 10 8 12 6 2 46 50 115 138 25 31 136 207 158 250 13 25
27 47 32 48 4 2 7 12 7 22 0 9 7 23 15 30 8 7 15 16 15 21 0 5 12 34 26 66 35
80 40 92 59 143 21 54 64 196 71 229 3 14 7 28 9 31 2 4 7 20 9 36 3 16 8 40
11 54 3 14 8 36 11 50 2 14 6 34 9 45 2 11 7 43 10 70 4 28 8 61 11 75 23 139
23 541 -1 745 -10 90 -14 121 -19 145 -2 14 -10 59 -17 100 -7 41 -13 77 -14
80 -3 11 -28 126 -30 140 -2 8 -4 15 -5 15 -1 0 -3 7 -5 15 -1 8 -10 46 -20
83 -9 37 -18 73 -19 80 -2 7 -6 19 -9 27 -6 16 -40 122 -42 130 -8 35 -29 102
-41 127 -8 17 -14 34 -14 38 0 11 -101 278 -126 333 -13 29 -24 56 -24 60 0 5
-9 26 -19 48 -10 21 -45 97 -76 169 -32 71 -65 141 -74 154 -9 14 -15 27 -13
28 2 2 -13 35 -32 73 -20 39 -36 72 -36 75 0 7 269 138 288 141 8 1 22 10 31
18 10 9 21 16 25 16 10 0 196 88 576 274 86 42 161 76 167 76 6 0 13 5 15 11
2 5 10 11 18 13 37 6 1058 525 1097 557 7 6 13 8 13 3 0 -5 4 -4 8 1 6 9 25
20 117 69 11 6 22 13 25 16 3 3 25 16 50 29 53 29 290 171 305 183 26 22 147
98 154 98 5 0 11 3 13 8 2 4 37 32 78 61 245 177 491 410 615 585 11 16 25 33
30 40 8 9 64 95 113 171 6 11 20 36 30 55 9 19 19 37 22 40 12 12 70 141 100
225 40 111 42 118 45 130 2 6 8 30 16 55 63 221 79 502 43 740 -8 50 -25 132
-31 150 -6 15 -13 54 -15 78 -1 6 -5 12 -10 12 -4 0 -8 9 -8 20 0 18 -6 37
-36 107 -8 17 -14 34 -14 37 0 14 -102 211 -111 214 -5 2 -9 9 -9 15 0 13 -71
120 -82 125 -5 2 -8 8 -8 13 0 5 -6 17 -14 26 -8 10 -42 52 -75 94 -169 214
-447 455 -706 614 -44 27 -82 52 -85 55 -11 11 -310 165 -380 194 -25 11 -70
30 -100 44 -30 13 -73 31 -95 39 -59 22 -319 114 -325 115 -6 1 -5 0 -75 21
-27 9 -63 19 -80 23 -16 4 -32 8 -35 9 -3 1 -18 5 -35 9 -16 4 -45 11 -63 17
-19 6 -44 12 -55 14 -12 2 -52 10 -88 18 -36 9 -79 18 -95 20 -16 3 -36 8 -44
11 -8 3 -34 7 -57 10 -23 2 -46 7 -51 9 -4 3 -30 8 -58 11 -27 3 -60 7 -74 10
-14 3 -43 8 -65 11 -22 3 -56 7 -75 9 -19 3 -60 8 -90 12 -252 31 -800 52
-800 30 0 -7 -3 -6 -8 2 -5 7 -10 10 -13 8z m359 -421 c23 -4 52 -8 65 -10 38
-4 102 -15 127 -21 14 -3 39 -7 55 -9 23 -3 205 -49 315 -79 71 -20 249 -98
315 -139 107 -65 222 -164 288 -246 118 -147 219 -367 257 -561 6 -30 13 -64
15 -75 14 -66 4 -198 -17 -222 -6 -7 -8 -13 -5 -13 11 0 -56 -173 -73 -190 -3
-3 -14 -22 -25 -42 -11 -21 -23 -38 -27 -38 -5 0 -8 -4 -8 -10 0 -5 -8 -20
-17 -32 -21 -26 -166 -172 -208 -209 -76 -66 -303 -219 -415 -280 -25 -13 -47
-26 -50 -29 -3 -3 -21 -13 -40 -23 -19 -10 -77 -42 -130 -70 -52 -28 -117 -62
-145 -76 -27 -14 -52 -28 -55 -31 -3 -3 -93 -50 -200 -104 -107 -54 -251 -128
-320 -164 -361 -187 -1102 -562 -1110 -562 -6 0 -11 12 -65 150 -20 52 -43
109 -50 125 -8 17 -26 62 -41 100 -14 39 -32 84 -39 100 -16 37 -104 265 -140
360 -14 39 -30 78 -35 87 -6 10 -10 26 -10 36 0 9 -6 26 -14 37 -7 11 -14 23
-14 28 0 7 -57 186 -69 217 -3 8 -7 20 -9 25 -1 6 -12 42 -24 80 -20 70 -52
210 -67 295 -13 80 -8 455 7 455 1 0 3 7 5 15 2 8 6 29 10 45 4 17 8 37 9 45
2 8 7 24 11 35 75 206 139 308 278 448 106 106 111 110 227 187 84 57 311 173
337 173 7 0 13 3 13 6 0 4 21 13 48 20 26 8 61 20 77 27 38 16 132 45 165 50
14 3 33 7 42 10 9 3 25 6 35 8 10 2 52 11 93 20 76 15 103 20 175 30 75 11
120 16 190 22 39 3 71 7 73 8 5 5 148 -2 190 -9z m-2370 -6377 c10 -19 30 -68
37 -88 4 -10 18 -46 36 -87 10 -24 16 -43 13 -43 -3 0 2 -12 10 -27 17 -33 87
-211 91 -235 2 -9 9 -27 16 -40 7 -13 11 -24 10 -26 -1 -1 7 -28 19 -60 12
-31 23 -61 24 -67 1 -5 19 -62 40 -126 20 -64 39 -125 41 -135 2 -11 10 -44
18 -74 8 -30 20 -80 26 -110 6 -30 14 -66 16 -80 3 -14 8 -40 11 -59 2 -19 6
-46 9 -60 17 -101 23 -345 10 -460 -7 -69 -15 -131 -19 -151 -17 -92 -51 -229
-66 -265 -4 -11 -18 -49 -30 -85 -25 -71 -102 -232 -144 -298 -14 -23 -26 -46
-26 -51 0 -5 -4 -11 -8 -13 -4 -1 -27 -31 -51 -65 -24 -35 -48 -63 -52 -63 -5
0 -9 -5 -9 -11 0 -18 -156 -179 -242 -250 -29 -24 -55 -47 -58 -50 -3 -4 -59
-45 -125 -93 -66 -47 -125 -90 -130 -94 -6 -5 -33 -21 -60 -37 -28 -16 -57
-34 -65 -40 -24 -19 -257 -144 -280 -150 -3 -1 -27 -12 -55 -24 -93 -42 -304
-110 -390 -125 -16 -3 -40 -8 -52 -10 -11 -3 -43 -8 -70 -12 -26 -3 -56 -8
-66 -10 -139 -25 -634 -25 -786 1 -14 2 -46 6 -71 9 -25 3 -56 8 -70 11 -14 3
-38 7 -55 10 -16 2 -41 7 -55 10 -14 3 -35 7 -46 9 -42 8 -219 57 -249 69 -16
6 -32 12 -35 12 -12 2 -57 18 -85 30 -16 7 -64 27 -105 44 -42 17 -111 51
-154 76 -44 25 -83 45 -87 45 -4 0 -9 3 -11 8 -1 4 -29 25 -62 47 -120 82
-234 208 -299 330 -99 186 -110 427 -30 649 23 64 97 200 125 231 7 7 24 28
38 47 32 43 183 193 239 238 24 19 48 40 55 45 6 6 36 29 66 53 30 23 60 46
67 52 7 5 16 10 22 10 5 0 11 4 13 8 2 5 37 31 78 58 41 27 77 52 80 55 3 3
21 14 40 25 19 10 37 22 40 25 9 11 142 89 151 89 5 0 9 3 9 8 0 4 10 12 23
18 12 6 63 35 112 64 50 29 115 66 145 83 30 16 84 47 120 67 36 21 101 57
145 80 44 23 112 59 150 80 39 21 126 67 195 103 69 35 146 76 173 90 26 14
47 23 47 21 0 -3 12 3 28 13 32 22 498 252 913 451 167 80 425 204 549 265 63
30 120 56 126 56 6 1 16 -9 22 -21z"/>
</g>
</svg>
